<svg width="24" height="24" viewBox="0 0 24 24" fill="none" xmlns="http://www.w3.org/2000/svg">
<path fill-rule="evenodd" clip-rule="evenodd" d="M20.7803 8.46967C21.0732 8.76256 21.0732 9.23744 20.7803 9.53033L16.6553 13.6553C16.3624 13.9482 15.8876 13.9482 15.5947 13.6553C15.3018 13.3624 15.3018 12.8876 15.5947 12.5947L19.7197 8.46967C20.0126 8.17678 20.4874 8.17678 20.7803 8.46967Z" fill="#21272A"/>
<path fill-rule="evenodd" clip-rule="evenodd" d="M10.3447 9.59467C10.6376 9.30178 11.1124 9.30178 11.4053 9.59467L14.4053 12.5947C14.6982 12.8876 14.6982 13.3624 14.4053 13.6553C14.1124 13.9482 13.6376 13.9482 13.3447 13.6553L10.3447 10.6553C10.0518 10.3624 10.0518 9.88756 10.3447 9.59467Z" fill="#21272A"/>
<path fill-rule="evenodd" clip-rule="evenodd" d="M9.15533 9.59467C9.44822 9.88756 9.44822 10.3624 9.15533 10.6553L4.28033 15.5303C3.98744 15.8232 3.51256 15.8232 3.21967 15.5303C2.92678 15.2374 2.92678 14.7626 3.21967 14.4697L8.09467 9.59467C8.38756 9.30178 8.86244 9.30178 9.15533 9.59467Z" fill="#21272A"/>
<path fill-rule="evenodd" clip-rule="evenodd" d="M21.375 7.5C21.1679 7.5 21 7.66789 21 7.875C21 8.08211 21.1679 8.25 21.375 8.25C21.5821 8.25 21.75 8.08211 21.75 7.875C21.75 7.66789 21.5821 7.5 21.375 7.5ZM19.5 7.875C19.5 6.83947 20.3395 6 21.375 6C22.4105 6 23.25 6.83947 23.25 7.875C23.25 8.91053 22.4105 9.75 21.375 9.75C20.3395 9.75 19.5 8.91053 19.5 7.875Z" fill="#21272A"/>
<path fill-rule="evenodd" clip-rule="evenodd" d="M15 13.875C14.7929 13.875 14.625 14.0429 14.625 14.25C14.625 14.4571 14.7929 14.625 15 14.625C15.2071 14.625 15.375 14.4571 15.375 14.25C15.375 14.0429 15.2071 13.875 15 13.875ZM13.125 14.25C13.125 13.2145 13.9645 12.375 15 12.375C16.0355 12.375 16.875 13.2145 16.875 14.25C16.875 15.2855 16.0355 16.125 15 16.125C13.9645 16.125 13.125 15.2855 13.125 14.25Z" fill="#21272A"/>
<path fill-rule="evenodd" clip-rule="evenodd" d="M9.75 8.625C9.54289 8.625 9.375 8.79289 9.375 9C9.375 9.20711 9.54289 9.375 9.75 9.375C9.95711 9.375 10.125 9.20711 10.125 9C10.125 8.79289 9.95711 8.625 9.75 8.625ZM7.875 9C7.875 7.96447 8.71447 7.125 9.75 7.125C10.7855 7.125 11.625 7.96447 11.625 9C11.625 10.0355 10.7855 10.875 9.75 10.875C8.71447 10.875 7.875 10.0355 7.875 9Z" fill="#21272A"/>
<path fill-rule="evenodd" clip-rule="evenodd" d="M2.625 15.75C2.41789 15.75 2.25 15.9179 2.25 16.125C2.25 16.3321 2.41789 16.5 2.625 16.5C2.83211 16.5 3 16.3321 3 16.125C3 15.9179 2.83211 15.75 2.625 15.75ZM0.75 16.125C0.75 15.0895 1.58947 14.25 2.625 14.25C3.66053 14.25 4.5 15.0895 4.5 16.125C4.5 17.1605 3.66053 18 2.625 18C1.58947 18 0.75 17.1605 0.75 16.125Z" fill="#21272A"/>
</svg>
