<svg width="26" height="26" viewBox="0 0 26 26" fill="none" xmlns="http://www.w3.org/2000/svg">
<path fill-rule="evenodd" clip-rule="evenodd" d="M3.25 8.125C3.25 7.67627 3.61377 7.3125 4.0625 7.3125H21.9375C22.3862 7.3125 22.75 7.67627 22.75 8.125C22.75 8.57373 22.3862 8.9375 21.9375 8.9375H4.0625C3.61377 8.9375 3.25 8.57373 3.25 8.125Z" fill="#001D6C"/>
<path fill-rule="evenodd" clip-rule="evenodd" d="M3.25 13C3.25 12.5513 3.61377 12.1875 4.0625 12.1875H21.9375C22.3862 12.1875 22.75 12.5513 22.75 13C22.75 13.4487 22.3862 13.8125 21.9375 13.8125H4.0625C3.61377 13.8125 3.25 13.4487 3.25 13Z" fill="#001D6C"/>
<path fill-rule="evenodd" clip-rule="evenodd" d="M3.25 17.875C3.25 17.4263 3.61377 17.0625 4.0625 17.0625H21.9375C22.3862 17.0625 22.75 17.4263 22.75 17.875C22.75 18.3237 22.3862 18.6875 21.9375 18.6875H4.0625C3.61377 18.6875 3.25 18.3237 3.25 17.875Z" fill="#001D6C"/>
</svg>
