<svg width="24" height="24" viewBox="0 0 24 24" fill="none" xmlns="http://www.w3.org/2000/svg">
<path d="M16.95 9.87899L16.243 9.17199C16.0553 8.98448 15.9499 8.73011 15.9498 8.46484C15.9497 8.19957 16.055 7.94513 16.2425 7.75749C16.43 7.56984 16.6844 7.46438 16.9496 7.46428C17.2149 7.46419 17.4693 7.56948 17.657 7.75699L18.364 8.46399L19.778 7.04999L16.95 4.22198L4.22198 16.95L7.04999 19.778L8.46399 18.364L7.04999 16.95C6.86783 16.7614 6.76703 16.5088 6.76931 16.2466C6.77159 15.9844 6.87676 15.7336 7.06217 15.5482C7.24757 15.3628 7.49839 15.2576 7.76058 15.2553C8.02278 15.253 8.27538 15.3538 8.46399 15.536L9.87999 16.95L11.294 15.536L10.587 14.828C10.4092 14.6387 10.312 14.3876 10.3161 14.1279C10.3201 13.8682 10.425 13.6203 10.6086 13.4366C10.7922 13.2529 11.04 13.1478 11.2997 13.1436C11.5594 13.1393 11.8105 13.2363 12 13.414L12.707 14.121L14.121 12.707L12.707 11.293C12.5248 11.1044 12.424 10.8518 12.4263 10.5896C12.4286 10.3274 12.5338 10.0766 12.7192 9.89117C12.9046 9.70576 13.1554 9.60059 13.4176 9.59831C13.6798 9.59603 13.9324 9.69683 14.121 9.87899L15.536 11.293L16.95 9.87899ZM2.80799 15.536L15.536 2.80799C15.911 2.43304 16.4197 2.22241 16.95 2.22241C17.4803 2.22241 17.9889 2.43304 18.364 2.80799L21.192 5.63598C21.5669 6.01104 21.7776 6.51966 21.7776 7.04999C21.7776 7.58031 21.5669 8.08893 21.192 8.46399L8.46399 21.192C8.08893 21.5669 7.58031 21.7776 7.04999 21.7776C6.51966 21.7776 6.01104 21.5669 5.63598 21.192L2.80799 18.364C2.43304 17.9889 2.22241 17.4803 2.22241 16.95C2.22241 16.4197 2.43304 15.911 2.80799 15.536Z" fill="#878D96"/>
</svg>
