<svg width="42" height="42" viewBox="0 0 42 42" fill="none" xmlns="http://www.w3.org/2000/svg">
<rect width="42" height="42" rx="21" fill="#F2F4F8"/>
<path d="M17.534 21.07C17.6569 21.0175 17.7892 20.9903 17.9228 20.9898C18.0565 20.9893 18.1889 21.0156 18.3122 21.0672C18.4355 21.1188 18.5473 21.1945 18.6408 21.29C18.7344 21.3855 18.8078 21.4988 18.8568 21.6231C18.9058 21.7475 18.9294 21.8804 18.9262 22.014C18.9229 22.1477 18.8929 22.2793 18.8379 22.4011C18.7829 22.523 18.7041 22.6325 18.606 22.7234C18.508 22.8142 18.3927 22.8845 18.267 22.93C17.5985 23.1934 17.0248 23.6519 16.6205 24.2458C16.2162 24.8397 16 25.5415 16 26.26V28C16 28.2652 16.1054 28.5196 16.2929 28.7071C16.4804 28.8946 16.7348 29 17 29H25C25.2652 29 25.5196 28.8946 25.7071 28.7071C25.8946 28.5196 26 28.2652 26 28V26.353C26.0001 25.6115 25.7749 24.8874 25.3541 24.2768C24.9334 23.6662 24.337 23.1979 23.644 22.934C23.5175 22.8901 23.4012 22.8213 23.3018 22.7316C23.2024 22.6419 23.1221 22.5332 23.0655 22.4119C23.009 22.2905 22.9773 22.1591 22.9725 22.0253C22.9677 21.8916 22.9897 21.7582 23.0374 21.6331C23.0851 21.508 23.1574 21.3938 23.25 21.2972C23.3427 21.2006 23.4538 21.1235 23.5767 21.0706C23.6997 21.0177 23.832 20.9901 23.9659 20.9893C24.0998 20.9885 24.2324 21.0146 24.356 21.066C25.4276 21.4742 26.3499 22.1983 27.0006 23.1425C27.6514 24.0867 27.9999 25.2063 28 26.353V28C28 28.7956 27.6839 29.5587 27.1213 30.1213C26.5587 30.6839 25.7956 31 25 31H17C16.2044 31 15.4413 30.6839 14.8787 30.1213C14.3161 29.5587 14 28.7956 14 28V26.26C14.0001 25.1402 14.3373 24.0463 14.9676 23.1206C15.5978 22.195 16.4921 21.4805 17.534 21.07ZM21 11C22.0609 11 23.0783 11.4214 23.8284 12.1716C24.5786 12.9217 25 13.9391 25 15V17C25 18.0609 24.5786 19.0783 23.8284 19.8284C23.0783 20.5786 22.0609 21 21 21C19.9391 21 18.9217 20.5786 18.1716 19.8284C17.4214 19.0783 17 18.0609 17 17V15C17 13.9391 17.4214 12.9217 18.1716 12.1716C18.9217 11.4214 19.9391 11 21 11V11ZM21 13C20.4696 13 19.9609 13.2107 19.5858 13.5858C19.2107 13.9609 19 14.4696 19 15V17C19 17.5304 19.2107 18.0391 19.5858 18.4142C19.9609 18.7893 20.4696 19 21 19C21.5304 19 22.0391 18.7893 22.4142 18.4142C22.7893 18.0391 23 17.5304 23 17V15C23 14.4696 22.7893 13.9609 22.4142 13.5858C22.0391 13.2107 21.5304 13 21 13Z" fill="#001D6C"/>
</svg>
