<svg width="48" height="48" viewBox="0 0 48 48" fill="none" xmlns="http://www.w3.org/2000/svg">
<path d="M28.666 25.782L28 25.186V20C28 18.9391 27.5786 17.9217 26.8284 17.1716C26.0783 16.4214 25.0609 16 24 16C22.9391 16 21.9217 16.4214 21.1716 17.1716C20.4214 17.9217 20 18.9391 20 20V25.186L19.334 25.782C18.3676 26.6445 17.6599 27.7586 17.29 29H30.71C30.3401 27.7586 29.6325 26.6445 28.666 25.782ZM27 31C27 31.7956 26.6839 32.5587 26.1213 33.1213C25.5587 33.6839 24.7957 34 24 34C23.2044 34 22.4413 33.6839 21.8787 33.1213C21.3161 32.5587 21 31.7956 21 31H15C14.9986 29.7335 15.2652 28.4811 15.7823 27.325C16.2993 26.1689 17.0551 25.1353 18 24.292V20C18 18.4087 18.6321 16.8826 19.7574 15.7574C20.8826 14.6321 22.4087 14 24 14C25.5913 14 27.1174 14.6321 28.2426 15.7574C29.3679 16.8826 30 18.4087 30 20V24.292C30.9449 25.1353 31.7007 26.1689 32.2177 27.325C32.7348 28.4811 33.0014 29.7335 33 31H27ZM24 32C24.2652 32 24.5196 31.8946 24.7071 31.7071C24.8946 31.5196 25 31.2652 25 31H23C23 31.2652 23.1054 31.5196 23.2929 31.7071C23.4804 31.8946 23.7348 32 24 32Z" fill="#001D6C"/>
<rect x="24" y="8" width="17" height="18" rx="8.5" fill="#DA1E28"/>
<path d="M30.9216 16.16C30.9216 16.656 31.0376 17.052 31.2696 17.348C31.5096 17.636 31.8656 17.78 32.3376 17.78C32.5936 17.78 32.8616 17.7 33.1416 17.54C33.4296 17.38 33.6976 17.12 33.9456 16.76C33.8816 16.016 33.7056 15.452 33.4176 15.068C33.1296 14.676 32.7416 14.48 32.2536 14.48C31.8856 14.48 31.5696 14.636 31.3056 14.948C31.0496 15.252 30.9216 15.656 30.9216 16.16ZM31.9776 21.644C31.5696 21.644 31.2096 21.568 30.8976 21.416C30.5936 21.256 30.3376 21.064 30.1296 20.84L30.6816 20.216C30.8416 20.4 31.0296 20.548 31.2456 20.66C31.4696 20.772 31.7016 20.828 31.9416 20.828C32.3016 20.828 32.6336 20.724 32.9376 20.516C33.2416 20.308 33.4856 19.964 33.6696 19.484C33.8616 19.004 33.9616 18.356 33.9696 17.54C33.7296 17.844 33.4496 18.084 33.1296 18.26C32.8096 18.436 32.4896 18.524 32.1696 18.524C31.5136 18.524 30.9856 18.328 30.5856 17.936C30.1936 17.536 29.9976 16.944 29.9976 16.16C29.9976 15.672 30.1016 15.244 30.3096 14.876C30.5176 14.508 30.7896 14.22 31.1256 14.012C31.4696 13.804 31.8456 13.7 32.2536 13.7C32.7576 13.7 33.2096 13.836 33.6096 14.108C34.0096 14.38 34.3216 14.788 34.5456 15.332C34.7776 15.876 34.8936 16.56 34.8936 17.384C34.8936 18.408 34.7536 19.232 34.4736 19.856C34.2016 20.48 33.8456 20.936 33.4056 21.224C32.9656 21.504 32.4896 21.644 31.9776 21.644Z" fill="white"/>
</svg>
