<svg width="24" height="24" viewBox="0 0 24 24" fill="none" xmlns="http://www.w3.org/2000/svg">
<path fill-rule="evenodd" clip-rule="evenodd" d="M7.36454 6C6.79713 6 6.36305 6.307 6.21031 6.66341L6.2103 6.66342L4.43936 10.7954C4.27619 11.1762 3.83528 11.3525 3.45456 11.1894C3.07384 11.0262 2.89748 10.5853 3.06065 10.2046L4.83159 6.07253C4.83159 6.07253 4.83159 6.07252 4.83159 6.07252C5.25541 5.08362 6.29039 4.5 7.36454 4.5H16.6355C17.7096 4.5 18.7446 5.08363 19.1684 6.07253L20.9394 10.2046C21.1025 10.5853 20.9262 11.0262 20.5455 11.1894C20.1647 11.3525 19.7238 11.1762 19.5607 10.7954L17.7897 6.66342L18.4791 6.36797L17.7897 6.66341C17.637 6.307 17.2029 6 16.6355 6H7.36454Z" fill="#21272A"/>
<path fill-rule="evenodd" clip-rule="evenodd" d="M3 10.5C3 10.0858 3.33579 9.75 3.75 9.75H20.25C20.6642 9.75 21 10.0858 21 10.5V17.25C21 17.6642 20.6642 18 20.25 18H3.75C3.33579 18 3 17.6642 3 17.25V10.5ZM4.5 11.25V16.5H19.5V11.25H4.5Z" fill="#21272A"/>
<path fill-rule="evenodd" clip-rule="evenodd" d="M3.75 16.5C4.16421 16.5 4.5 16.8358 4.5 17.25C4.5 16.8358 4.83579 16.5 5.25 16.5C5.66421 16.5 6 16.8358 6 17.25V18.75C6 19.1642 5.66421 19.5 5.25 19.5H3.75C3.33579 19.5 3 19.1642 3 18.75V17.25C3 16.8358 3.33579 16.5 3.75 16.5Z" fill="#21272A"/>
<path fill-rule="evenodd" clip-rule="evenodd" d="M18.75 16.5C19.1642 16.5 19.5 16.8358 19.5 17.25C19.5 16.8358 19.8358 16.5 20.25 16.5C20.6642 16.5 21 16.8358 21 17.25V18.75C21 19.1642 20.6642 19.5 20.25 19.5H18.75C18.3358 19.5 18 19.1642 18 18.75V17.25C18 16.8358 18.3358 16.5 18.75 16.5Z" fill="#21272A"/>
<path fill-rule="evenodd" clip-rule="evenodd" d="M5.25 13.5C5.25 12.6716 5.92157 12 6.75 12C7.57843 12 8.25 12.6716 8.25 13.5C8.25 14.3284 7.57843 15 6.75 15C5.92157 15 5.25 14.3284 5.25 13.5Z" fill="#21272A"/>
<path fill-rule="evenodd" clip-rule="evenodd" d="M15.75 13.5C15.75 12.6716 16.4216 12 17.25 12C18.0784 12 18.75 12.6716 18.75 13.5C18.75 14.3284 18.0784 15 17.25 15C16.4216 15 15.75 14.3284 15.75 13.5Z" fill="#21272A"/>
</svg>
