<svg width="24" height="24" viewBox="0 0 24 24" fill="none" xmlns="http://www.w3.org/2000/svg">
  <path d="M12.0003 12C9.52064 12 7.33626 9.67031 7.12532 6.80625C7.01751 5.35312 7.46751 4.00781 8.39095 3.01875C9.30032 2.03906 10.5847 1.5 12.0003 1.5C13.4066 1.5 14.6863 2.04375 15.6003 3.02812C16.5284 4.02656 16.9784 5.36719 16.8706 6.80625C16.6597 9.67031 14.4753 12 12.0003 12ZM12.0003 3C11.0066 3 10.1113 3.37031 9.48782 4.04062C8.85501 4.72031 8.54564 5.66719 8.62064 6.69844C8.77064 8.76094 10.3175 10.5047 11.9956 10.5047C13.6738 10.5047 15.2206 8.76094 15.3706 6.69844C15.4456 5.68125 15.1363 4.73906 14.4941 4.05C13.8753 3.37031 12.9847 3 12.0003 3Z" fill="#21272A" />
  <path d="M20.2503 22.5002H3.75035C3.30035 22.5002 2.89722 22.3127 2.61597 21.9799C2.31129 21.6143 2.18941 21.1174 2.27847 20.6158C2.67222 18.4221 3.90972 16.5752 5.85035 15.2861C7.57535 14.1377 9.75972 13.5049 12.0003 13.5049C14.241 13.5049 16.4253 14.1377 18.1503 15.2861C20.091 16.5799 21.3285 18.4221 21.7222 20.6158C21.8113 21.1174 21.6894 21.6143 21.3847 21.9799C21.1035 22.3127 20.7003 22.5002 20.2503 22.5002ZM3.75972 21.0002H20.241C20.2503 20.9768 20.255 20.9393 20.2457 20.8783C19.5191 16.8424 15.4597 15.0002 12.0003 15.0002C8.54097 15.0002 4.4816 16.8424 3.75504 20.8783C3.74566 20.9393 3.75035 20.9768 3.75972 21.0002Z" fill="#21272A" />
</svg>