<svg width="24" height="24" viewBox="0 0 24 24" fill="none" xmlns="http://www.w3.org/2000/svg">
<path fill-rule="evenodd" clip-rule="evenodd" d="M15.75 6.75C15.75 6.33579 16.0858 6 16.5 6H21.75C22.1642 6 22.5 6.33579 22.5 6.75V12C22.5 12.4142 22.1642 12.75 21.75 12.75C21.3358 12.75 21 12.4142 21 12V7.5H16.5C16.0858 7.5 15.75 7.16421 15.75 6.75Z" fill="#21272A"/>
<path fill-rule="evenodd" clip-rule="evenodd" d="M21.5303 6.96967C21.8232 7.26256 21.8232 7.73744 21.5303 8.03033L15.0912 14.4695C15.0912 14.4695 15.0911 14.4695 15.0911 14.4695C14.8822 14.6785 14.6341 14.8443 14.3612 14.9574C14.0881 15.0705 13.7955 15.1287 13.5 15.1287C13.2045 15.1287 12.9119 15.0705 12.6388 14.9574C12.3658 14.8443 12.1178 14.6785 11.9088 14.4695L9.53045 12.0911L9.53039 12.0911C9.46074 12.0214 9.37806 11.9661 9.28705 11.9284C9.19605 11.8907 9.09851 11.8713 9 11.8713C8.90149 11.8713 8.80395 11.8907 8.71295 11.9284C8.62194 11.9661 8.53926 12.0214 8.46961 12.0911L8.46955 12.0911L2.78033 17.7803C2.48744 18.0732 2.01256 18.0732 1.71967 17.7803C1.42678 17.4874 1.42678 17.0126 1.71967 16.7197L7.40883 11.0305C7.61777 10.8215 7.86583 10.6557 8.13884 10.5426C8.41186 10.4295 8.70448 10.3713 9 10.3713C9.29552 10.3713 9.58814 10.4295 9.86116 10.5426C10.1342 10.6557 10.3822 10.8215 10.5912 11.0305L12.9695 13.4089L12.9696 13.4089C13.0393 13.4786 13.1219 13.5339 13.2129 13.5716C13.304 13.6093 13.4015 13.6287 13.5 13.6287C13.5985 13.6287 13.696 13.6093 13.7871 13.5716C13.8781 13.5339 13.9607 13.4786 14.0304 13.4089L14.0305 13.4089L20.4697 6.96967C20.7626 6.67678 21.2374 6.67678 21.5303 6.96967Z" fill="#21272A"/>
</svg>
